<svg width="32" height="32" viewBox="0 0 32 32" fill="none" xmlns="http://www.w3.org/2000/svg">
<path fill-rule="evenodd" clip-rule="evenodd" d="M7.99984 14.6667C7.2665 14.6667 6.6665 15.2667 6.6665 16C6.6665 16.7333 7.2665 17.3333 7.99984 17.3333C8.73317 17.3333 9.33317 16.7333 9.33317 16C9.33317 15.2667 8.73317 14.6667 7.99984 14.6667Z" fill="#232527"/>
<path fill-rule="evenodd" clip-rule="evenodd" d="M23.9998 14.6667C23.2665 14.6667 22.6665 15.2667 22.6665 16C22.6665 16.7333 23.2665 17.3333 23.9998 17.3333C24.7332 17.3333 25.3332 16.7333 25.3332 16C25.3332 15.2667 24.7332 14.6667 23.9998 14.6667Z" fill="#232527"/>
<path fill-rule="evenodd" clip-rule="evenodd" d="M15.9998 14.6667C15.2665 14.6667 14.6665 15.2667 14.6665 16C14.6665 16.7333 15.2665 17.3333 15.9998 17.3333C16.7332 17.3333 17.3332 16.7333 17.3332 16C17.3332 15.2667 16.7332 14.6667 15.9998 14.6667Z" fill="#232527"/>
</svg>
